<?xml version="1.0" encoding="UTF-8"?>
<svg version="1.1" xmlns="http://www.w3.org/2000/svg" width="64" height="64">
<path d="M0 0 C15.84 0 31.68 0 48 0 C48 1.32 48 2.64 48 4 C48.66 4 49.32 4 50 4 C50 16.54 50 29.08 50 42 C32.84 42 15.68 42 -2 42 C-2 29.46 -2 16.92 -2 4 C-1.34 4 -0.68 4 0 4 C0 2.68 0 1.36 0 0 Z M3 2 C2.67 2.66 2.34 3.32 2 4 C16.52 4 31.04 4 46 4 C45.505 3.01 45.505 3.01 45 2 C31.14 2 17.28 2 3 2 Z M1 6 C4.94099626 9.94099626 8.93670498 13.07238881 13.4375 16.3125 C14.56381836 17.15651367 14.56381836 17.15651367 15.71289062 18.01757812 C16.44572266 18.54416016 17.17855469 19.07074219 17.93359375 19.61328125 C18.59415771 20.09579346 19.25472168 20.57830566 19.93530273 21.07543945 C22.72211766 22.32336048 24.1256845 21.93361267 27 21 C29.11897651 19.86142952 29.11897651 19.86142952 31.1015625 18.3828125 C31.83890625 17.85816406 32.57625 17.33351563 33.3359375 16.79296875 C34.09132812 16.24253906 34.84671875 15.69210938 35.625 15.125 C36.388125 14.58230469 37.15125 14.03960937 37.9375 13.48046875 C41.22788908 11.11947027 44.12263972 8.87736028 47 6 C31.82 6 16.64 6 1 6 Z M0 10 C-0.02465746 14.1117256 -0.04283959 18.22342278 -0.05493164 22.33520508 C-0.0599708 23.73495228 -0.06680216 25.1346942 -0.07543945 26.53442383 C-0.0875232 28.54245777 -0.09269807 30.55052957 -0.09765625 32.55859375 C-0.10289307 33.76829834 -0.10812988 34.97800293 -0.11352539 36.22436523 C-0.31775285 38.90812017 -0.31775285 38.90812017 1 40 C2.43740353 40.09813987 3.87956327 40.1279828 5.3203125 40.12939453 C6.23796387 40.13254669 7.15561523 40.13569885 8.10107422 40.13894653 C9.09896973 40.1369223 10.09686523 40.13489807 11.125 40.1328125 C12.65084717 40.13424759 12.65084717 40.13424759 14.20751953 40.13571167 C16.36295636 40.13639361 18.51839522 40.13453835 20.67382812 40.13037109 C23.98572371 40.12502305 27.29748367 40.13031563 30.609375 40.13671875 C32.69791697 40.13605797 34.78645885 40.13477681 36.875 40.1328125 C38.37184326 40.13584885 38.37184326 40.13584885 39.89892578 40.13894653 C40.81657715 40.13579437 41.73422852 40.13264221 42.6796875 40.12939453 C43.49163574 40.12859894 44.30358398 40.12780334 45.14013672 40.12698364 C47.01545753 40.20364189 47.01545753 40.20364189 48 39 C48.08775605 36.85441173 48.10695219 34.70595579 48.09765625 32.55859375 C48.09443359 31.25341797 48.09121094 29.94824219 48.08789062 28.60351562 C48.07953401 27.2148431 48.07106905 25.82617123 48.0625 24.4375 C48.05748666 23.04492344 48.05292347 21.65234519 48.04882812 20.25976562 C48.03699434 16.8398013 48.0205088 13.41992156 48 10 C46.26600099 11.08237605 44.53477523 12.16919553 42.8046875 13.2578125 C41.35811768 14.16490967 41.35811768 14.16490967 39.88232422 15.09033203 C36.41479901 17.38772168 33.23969916 19.92983683 30.0703125 22.6171875 C27.51592458 24.32332585 26.09257203 24.93688629 23 25 C17.58150921 22.4246232 12.9049069 18.84909986 8.125 15.25 C4.29739997 11.82290688 4.29739997 11.82290688 0 10 Z " fill="#6B48FF" transform="translate(8,11)"/>
<path d="M0 0 C8.58 0 17.16 0 26 0 C26 0.99 26 1.98 26 3 C23.76953125 5.078125 23.76953125 5.078125 20.8125 7.25 C19.36810547 8.34054688 19.36810547 8.34054688 17.89453125 9.453125 C15 11 15 11 12.46875 10.9453125 C9.55654993 9.83019791 7.23980555 8.41728568 4.6875 6.625 C3.80449219 6.01914062 2.92148437 5.41328125 2.01171875 4.7890625 C1.34785156 4.19867187 0.68398438 3.60828125 0 3 C0 2.01 0 1.02 0 0 Z " fill="#85C1FF" transform="translate(19,20)"/>
<path d="M0 0 C14.52 0 29.04 0 44 0 C44 0.99 44 1.98 44 3 C29.15 2.67 14.3 2.34 -1 2 C-0.67 1.34 -0.34 0.68 0 0 Z " fill="#1E6BFF" transform="translate(12,11)"/>
<path d="M0 0 C5.28 0 10.56 0 16 0 C11 5 11 5 8.5625 6.125 C4.52112325 5.92785967 2.85212624 3.78579772 0 1 C0 0.67 0 0.34 0 0 Z " fill="#BBB5FF" transform="translate(24,25)"/>
<path d="M0 0 C3.3 0 6.6 0 10 0 C10 0.66 10 1.32 10 2 C6.7 2 3.4 2 0 2 C0 1.34 0 0.68 0 0 Z " fill="#B12CFF" transform="translate(44,47)"/>
<path d="M0 0 C2.64 0 5.28 0 8 0 C8 0.66 8 1.32 8 2 C5.36 2 2.72 2 0 2 C0 1.34 0 0.68 0 0 Z " fill="#A133FF" transform="translate(46,43)"/>
<path d="M0 0 C0.66 0 1.32 0 2 0 C2 1.32 2 2.64 2 4 C1.34 4 0.68 4 0 4 C0 2.68 0 1.36 0 0 Z " fill="#AD2DFF" transform="translate(18,45)"/>
<path d="M0 0 C0.66 0 1.32 0 2 0 C2 1.32 2 2.64 2 4 C1.34 4 0.68 4 0 4 C0 2.68 0 1.36 0 0 Z " fill="#AD2DFF" transform="translate(14,45)"/>
<path d="M0 0 C0.66 0 1.32 0 2 0 C2 1.32 2 2.64 2 4 C1.34 4 0.68 4 0 4 C0 2.68 0 1.36 0 0 Z " fill="#AD2DFF" transform="translate(10,45)"/>
</svg>
